<svg width="800" height="400" xmlns="http://www.w3.org/2000/svg">
  <!-- Background -->
  <rect width="800" height="400" fill="#1e1e1e" />
  
  <!-- Header -->
  <rect width="800" height="60" fill="#252525" />
  <circle cx="30" cy="30" r="10" fill="#ff5f56" />
  <circle cx="60" cy="30" r="10" fill="#ffbd2e" />
  <circle cx="90" cy="30" r="10" fill="#27c93f" />
  <text x="120" y="38" font-family="Arial" font-size="20" fill="#ffffff" font-weight="bold">ProKanban</text>

  <!-- Columns -->
  <!-- Column 1: Todo -->
  <rect x="20" y="80" width="180" height="300" rx="10" fill="#2c2c2c" />
  <text x="40" y="110" font-family="Arial" font-size="16" fill="#e0e0e0">Todo</text>
  <rect x="35" y="130" width="150" height="60" rx="5" fill="#3a3a3a" />
  <rect x="35" y="200" width="150" height="60" rx="5" fill="#3a3a3a" />

  <!-- Column 2: Progress -->
  <rect x="210" y="80" width="180" height="300" rx="10" fill="#2c2c2c" />
  <text x="230" y="110" font-family="Arial" font-size="16" fill="#e0e0e0">In Progress</text>
  <rect x="225" y="130" width="150" height="80" rx="5" fill="#3a3a3a" />

  <!-- Column 3: On Hold -->
  <rect x="400" y="80" width="180" height="300" rx="10" fill="#2c2c2c" />
  <text x="420" y="110" font-family="Arial" font-size="16" fill="#e0e0e0">On Hold</text>
  <rect x="415" y="130" width="150" height="60" rx="5" fill="#3a3a3a" />

  <!-- Column 4: Done -->
  <rect x="590" y="80" width="180" height="300" rx="10" fill="#2c2c2c" />
  <text x="610" y="110" font-family="Arial" font-size="16" fill="#e0e0e0">Done</text>
  <rect x="605" y="130" width="150" height="60" rx="5" fill="#3a3a3a" />
  <rect x="605" y="200" width="150" height="60" rx="5" fill="#3a3a3a" />
  <rect x="605" y="270" width="150" height="60" rx="5" fill="#3a3a3a" />
  
</svg>
